<svg width="48" height="48" viewBox="0 0 48 48" fill="none" xmlns="http://www.w3.org/2000/svg">
<path d="M16.473 33.1326L14.446 27.1326C14.227 26.4843 14.7091 25.8125 15.3934 25.8125H32.6938C33.3523 25.8125 33.831 26.4378 33.6592 27.0734L32.0376 33.0734C31.9197 33.5096 31.524 33.8125 31.0722 33.8125H17.4204C16.9914 33.8125 16.6103 33.5389 16.473 33.1326Z" fill="#28387B"/>
<rect x="13" y="19.8125" width="22" height="4" rx="1" fill="#28387B"/>
<rect x="19.2929" y="20.7412" width="13.3618" height="5" rx="2.5" transform="rotate(-45 19.2929 20.7412)" fill="#28387B" stroke="#FFF8E5"/>
<path d="M46.5295 24.8313C46.776 24.2331 48.0147 22.2135 47.9999 20.2172C47.985 18.2208 44.8401 17.8954 43.8236 16.4121C43.3127 15.6664 44.0817 14.6614 43.6851 12.4088C43.2886 10.1562 42.0711 9.08169 40.4917 8.50689C38.9122 7.93209 38.6105 7.23038 38.3242 6.30032C37.7207 4.33933 36.6623 3.09101 34.2753 2.72868C32.9296 2.52441 31.9977 2.8208 30.5142 2.747C29.0307 2.67319 27.8163 -0.00329571 24.609 3.04677e-06C23.4065 0.00124118 21.8336 1.60635 20.7816 1.91683C19.7296 2.22729 17.45 1.3341 16.6582 1.4791C15.8663 1.6241 14.9632 1.9738 13.7815 3.69747C12.5999 5.42114 11.5843 5.91583 11.5843 5.91583C9.93376 6.74814 10.0293 6.48288 7.36371 7.70463C4.74112 8.90667 5.75676 11.0008 4.97227 12.3606C4.18777 13.7205 2.26615 15.1887 1.36421 16.9744C0.630525 18.427 2.002 20.3754 1.93196 22.4039C1.86193 24.4324 -0.133949 25.2521 0.00713986 27.8998C0.148229 30.5475 2.21174 30.9206 2.87162 32.1344C3.53148 33.3481 3.11123 36.8379 4.08241 38.3835C5.05357 39.929 7.89085 39.7344 9.1668 40.2853C10.4427 40.8361 9.86614 41.7601 11.4644 43.7108C13.0627 45.6615 16.1272 45.0298 17.2219 45.2085C18.3165 45.3873 18.3848 45.7583 20.2379 47.0421C22.091 48.3259 23.6108 48.1532 24.4184 47.4909C26.4891 45.7925 28.2879 45.7371 28.7756 45.8276C30.1021 46.0738 30.9978 47.0689 32.6669 46.5674C33.5885 46.2906 34.3814 45.3496 34.8416 43.9524C35.3018 42.5553 35.81 42.0267 37.2882 41.5188C38.7664 41.0109 42.1416 40.463 43.084 39.8173C44.0264 39.1716 44.311 37.9574 44.455 36.8119C44.5991 35.6663 44.6113 33.9477 45.0362 33.0763C45.6012 31.9176 47.1197 31.6538 47.6267 29.7017C47.9822 28.3329 46.9816 26.9227 46.7096 26.4789C46.4376 26.035 46.2829 25.4294 46.5295 24.8313ZM45.1912 29.1525C45.0561 30.1254 44.3683 30.3253 44.0244 30.6052C43.6805 30.8851 42.6818 31.7621 42.3445 32.6576C41.6566 34.4835 42.3709 36.7891 42.0006 37.3488C41.6302 37.9086 38.5481 38.455 37.4767 38.8548C36.4053 39.2546 35.5322 39.8277 34.8973 40.654C34.2624 41.4803 33.7333 42.9729 33.4952 43.3594C33.2571 43.7459 33.0719 43.9458 32.2121 43.9725C31.3523 43.9991 29.9578 43.3418 28.4157 43.6393C25.9289 44.1191 24.8098 45.8516 23.7225 45.825C22.6353 45.7983 21.5638 44.8387 20.8892 44.4256C20.2146 44.0125 19.0241 43.3994 17.6087 43.3194C16.1934 43.2395 14.6061 43.5726 13.8918 43.0529C13.1775 42.5331 12.6881 40.2165 11.1801 39.1425C9.67215 38.0685 8.08484 38.2817 7.33085 37.7886C6.57687 37.2955 6.20651 36.3493 5.88904 34.0836C5.57158 31.818 4.77792 30.7118 3.87843 30.1254C2.97895 29.539 2.11084 29.1659 2.2539 28.233C2.39693 27.3001 3.56098 26.2472 3.87843 24.1815C4.1959 22.1157 3.30964 19.8634 3.17736 19.4236C3.0451 18.9839 2.91281 18.1709 4.09007 17.3446C5.26734 16.5183 6.62978 15.079 6.97371 13.8129C7.31763 12.5468 6.97371 10.7609 7.7409 9.90797C8.50811 9.05504 9.4598 9.19339 10.4261 8.90843C12.5955 8.26873 13.786 7.30917 14.7383 5.98977C15.6907 4.67036 16.3521 4.35051 16.9474 4.33718C17.5426 4.32385 18.8125 5.01686 19.8839 4.97689C20.9553 4.93691 23.4157 3.01779 23.8522 2.77789C24.2887 2.53801 24.6723 2.29811 25.1617 2.48468C25.6512 2.67128 26.8284 4.0573 28.5745 4.61706C30.3205 5.17679 32.1724 4.4438 33.2306 4.75033C34.2888 5.05686 35.0164 5.56329 35.5587 6.97598C36.101 8.38867 36.0878 8.77516 37.0799 9.54814C38.072 10.3211 39.6857 10.4144 40.2545 11.0675C40.8233 11.7205 41.4582 12.5468 41.4979 14.5459C41.5376 16.545 42.0535 17.1447 42.4768 17.891C42.9 18.6373 44.5335 19.545 44.6329 20.01C44.818 20.8763 44.2889 21.6493 43.9583 22.6622C43.6276 23.675 43.4291 24.5813 43.6937 25.5009C43.9583 26.4205 45.3263 28.1797 45.1912 29.1525Z" fill="#28387B"/>
</svg>
