<svg width="160" height="17" viewBox="0 0 160 17" fill="none" xmlns="http://www.w3.org/2000/svg">
<path d="M7.98751 0H0V2.31569H7.98751C11.8925 2.31569 14.3775 4.63137 14.3775 8.43147C14.3775 12.2316 11.9517 14.5473 7.98751 14.5473H2.42584V6.8283H7.86918C9.11168 6.8283 9.88085 7.42207 9.88085 8.55022C9.88085 9.619 9.11168 10.2721 7.86918 10.2721H7.21834V8.31272H4.85167V12.5285H7.86918C10.3542 12.5285 12.2475 10.9253 12.2475 8.49085C12.2475 5.75952 10.295 4.45324 7.86918 4.45324H0V16.7442H7.98751C13.2533 16.7442 16.7442 13.3597 16.7442 8.31272C16.7442 3.38446 13.2533 0 7.98751 0Z" fill="#F32327"/>
<path d="M28.7548 7.57061H23.2559V16.6145H28.7548C32.3454 16.6145 33.8143 14.7799 33.8143 12.1055C33.8143 9.21143 32.0567 7.57061 28.7548 7.57061ZM28.8929 14.6895H25.6789V9.49567H28.8929C30.6757 9.49567 31.3913 10.736 31.3913 12.0926C31.3913 13.475 30.5878 14.6895 28.8929 14.6895Z" fill="white"/>
<path d="M43.2338 16.6145H45.7322L41.2376 7.57061H38.3877L33.9057 16.6145H36.4166L37.3205 14.7282H42.3173L43.2338 16.6145ZM38.1742 12.9582L39.7812 9.62487H39.8315L41.451 12.9582H38.1742Z" fill="white"/>
<path d="M54.8834 7.57061V14.0306H54.8332L49.6356 7.57061H46.6978V16.6145H49.0204V10.1546H49.0706L54.2682 16.6145H57.206V7.57061H54.8834Z" fill="white"/>
<path d="M63.2519 11.8083L68.4872 7.57061H65.1853L61.3059 10.8006H61.2557V7.57061H58.9582V16.6145H61.2557V12.997H61.3059L65.7252 16.6145H69.1526L63.2519 11.8083Z" fill="white"/>
<path d="M74.7401 16.7437C78.2178 16.7437 80.4148 14.9479 80.4148 12.0926C80.4148 9.23727 78.2178 7.44141 74.7401 7.44141C71.2625 7.44141 69.0654 9.23727 69.0654 12.0926C69.0654 14.9479 71.2625 16.7437 74.7401 16.7437ZM74.7401 14.8316C72.7188 14.8316 71.4633 13.7076 71.4633 12.0926C71.4633 10.4776 72.7188 9.35355 74.7401 9.35355C76.774 9.35355 78.0169 10.4776 78.0169 12.0926C78.0169 13.7076 76.774 14.8316 74.7401 14.8316Z" fill="white"/>
<path d="M91.3272 15.1675V13.9918C91.3272 13.1778 90.938 12.5189 89.8959 12.4026V12.351C90.7873 12.1313 91.5281 11.4724 91.5281 10.2192C91.5281 8.82384 90.6869 7.57061 88.2638 7.57061H81.8484V16.6145H84.1333V13.4233H87.8119C88.5651 13.4233 88.9041 13.7463 88.9041 14.3665V15.3355C88.9041 15.8781 89.0171 16.3174 89.1929 16.6145H91.5657V16.382C91.3899 16.0202 91.3272 15.6714 91.3272 15.1675ZM87.8621 11.5629H84.1333V9.45691H87.8621C88.6028 9.45691 89.1176 9.77991 89.1176 10.5293C89.1176 11.2399 88.6279 11.5629 87.8621 11.5629Z" fill="white"/>
<path d="M102.097 7.57061H96.5977V16.6145H102.097C105.687 16.6145 107.156 14.7799 107.156 12.1055C107.156 9.21143 105.399 7.57061 102.097 7.57061ZM102.235 14.6895H99.0207V9.49567H102.235C104.017 9.49567 104.733 10.736 104.733 12.0926C104.733 13.475 103.93 14.6895 102.235 14.6895Z" fill="white"/>
<path d="M110.961 16.6145V7.57061H108.588V16.6145H110.961Z" fill="white"/>
<path d="M118.056 11.4078V13.1003H121.458C121.232 14.276 119.788 14.8057 118.219 14.8057C116.411 14.8057 114.804 14.121 114.804 12.1701C114.804 10.3871 116.273 9.44399 118.232 9.44399C119.763 9.44399 120.856 9.80575 121.245 10.5939H123.693C123.341 8.50084 120.918 7.44141 118.156 7.44141C114.829 7.44141 112.394 9.23727 112.394 12.1572C112.394 15.2579 115.03 16.7437 118.244 16.7437C121.421 16.7437 123.944 15.1546 123.944 12.2864V11.4078H118.056Z" fill="white"/>
<path d="M127.733 16.6145V7.57061H125.361V16.6145H127.733Z" fill="white"/>
<path d="M139.138 7.57061H128.956V9.53443H132.86V16.6145H135.233V9.53443H139.138V7.57061Z" fill="white"/>
<path d="M147.484 16.6145H149.982L145.488 7.57061H142.638L138.156 16.6145H140.667L141.571 14.7282H146.568L147.484 16.6145ZM142.425 12.9582L144.032 9.62487H144.082L145.701 12.9582H142.425Z" fill="white"/>
<path d="M153.334 14.6507V7.57061H150.948V16.6145H160V14.6507H153.334Z" fill="white"/>
<path d="M24.7344 0.05669C25.2703 0.05669 25.7125 0.231914 26.0611 0.582361C26.4133 0.929374 26.5895 1.35541 26.5895 1.86046C26.5895 2.36552 26.4133 2.79327 26.0611 3.14372C25.7125 3.49073 25.2703 3.66424 24.7344 3.66424H23.2559V0.05669H24.7344ZM24.7344 3.40656C25.1916 3.40656 25.5664 3.25882 25.8587 2.96334C26.151 2.66443 26.2972 2.29681 26.2972 1.86046C26.2972 1.42412 26.151 1.05821 25.8587 0.762739C25.5664 0.463828 25.1916 0.314372 24.7344 0.314372H23.5538V3.40656H24.7344Z" fill="white"/>
<path d="M30.7302 3.40656H32.6978V3.66424H30.4322V0.05669H32.6696V0.314372H30.7302V1.71616H32.5291V1.97385H30.7302V3.40656Z" fill="white"/>
<path d="M37.7246 3.72093C37.3611 3.72093 37.0519 3.64534 36.7971 3.49417C36.546 3.33956 36.3755 3.1317 36.2855 2.87058L36.5441 2.73143C36.6153 2.95476 36.7502 3.1317 36.9489 3.26226C37.1512 3.39281 37.4098 3.45809 37.7246 3.45809C38.0432 3.45809 38.2868 3.3911 38.4555 3.2571C38.6279 3.12311 38.7141 2.9496 38.7141 2.73658C38.7141 2.53731 38.6316 2.38442 38.4667 2.27791C38.3018 2.1714 38.0451 2.06661 37.6965 1.96354C37.5691 1.92574 37.4754 1.89826 37.4155 1.88108C37.3592 1.86046 37.2768 1.83126 37.1681 1.79347C37.0594 1.75224 36.9788 1.71616 36.9264 1.68524C36.8739 1.65432 36.8102 1.61309 36.7352 1.56155C36.664 1.51002 36.6116 1.45848 36.5778 1.40694C36.5441 1.35197 36.5141 1.28841 36.4879 1.21626C36.4616 1.14067 36.4485 1.05821 36.4485 0.968885C36.4485 0.676845 36.561 0.443213 36.7858 0.267989C37.0144 0.0893298 37.2993 0 37.6403 0C37.9476 0 38.21 0.0704331 38.4273 0.211299C38.6447 0.352166 38.804 0.534261 38.9052 0.757586L38.6522 0.886426C38.4648 0.470699 38.1275 0.262836 37.6403 0.262836C37.3705 0.262836 37.155 0.328115 36.9938 0.458674C36.8327 0.589233 36.7521 0.755867 36.7521 0.958577C36.7521 1.15442 36.8271 1.30044 36.977 1.39664C37.1269 1.49284 37.3724 1.59248 37.7134 1.69555C37.9308 1.76083 38.0994 1.81752 38.2193 1.86562C38.343 1.91028 38.4742 1.97385 38.6129 2.0563C38.7553 2.13533 38.8583 2.23153 38.9221 2.34491C38.9858 2.45485 39.0176 2.58369 39.0176 2.73143C39.0176 3.03034 38.8996 3.27085 38.6635 3.45294C38.4274 3.6316 38.1144 3.72093 37.7246 3.72093Z" fill="white"/>
<path d="M42.8141 0.05669H43.1121V3.66424H42.8141V0.05669Z" fill="white"/>
<path d="M50.9237 1.98415V2.1233C50.9237 2.57339 50.7494 2.95304 50.4009 3.26226C50.0523 3.56804 49.5932 3.72093 49.0236 3.72093C48.4239 3.72093 47.9292 3.54227 47.5395 3.18495C47.1497 2.8242 46.9548 2.3827 46.9548 1.86046C46.9548 1.33823 47.1478 0.898452 47.5338 0.541133C47.9199 0.180378 48.4089 0 49.0011 0C49.3609 0 49.6907 0.0790225 49.9905 0.237068C50.2941 0.395113 50.5283 0.606412 50.6932 0.870965L50.429 1.01527C50.2978 0.788507 50.1029 0.606412 49.8443 0.468982C49.5895 0.331551 49.3084 0.262836 49.0011 0.262836C48.4914 0.262836 48.0716 0.417445 47.7418 0.726663C47.4158 1.03245 47.2528 1.41038 47.2528 1.86046C47.2528 2.31055 47.4177 2.6902 47.7475 2.99942C48.0773 3.3052 48.5026 3.45809 49.0236 3.45809C49.4845 3.45809 49.8574 3.343 50.1423 3.1128C50.4271 2.8826 50.5864 2.59228 50.6201 2.24183H48.9505V1.98415H50.9237Z" fill="white"/>
<path d="M57.3483 0.05669H57.6462V3.66424H57.382L55.0602 0.561747V3.66424H54.7623V0.05669H55.0209L57.3483 3.15918V0.05669Z" fill="white"/>
<path d="M68.4086 3.56632L68.1444 3.70547L67.689 3.26741C67.4004 3.56976 67.0088 3.72093 66.5141 3.72093C66.1243 3.72093 65.8133 3.62988 65.5809 3.44779C65.3485 3.26226 65.2324 3.01488 65.2324 2.70566C65.2324 2.4789 65.2998 2.27276 65.4347 2.08722C65.5697 1.89826 65.7627 1.75396 66.0138 1.65432C65.8039 1.43099 65.699 1.19565 65.699 0.94827C65.699 0.663102 65.8076 0.434624 66.025 0.262836C66.2424 0.0876119 66.5047 0 66.812 0C67.0631 0 67.288 0.0601258 67.4866 0.180377C67.6853 0.300629 67.8258 0.467264 67.9083 0.680281L67.6609 0.814276C67.601 0.645923 67.4941 0.511928 67.3405 0.412291C67.1906 0.312654 67.0163 0.262836 66.8177 0.262836C66.5816 0.262836 66.3867 0.326397 66.233 0.453521C66.0794 0.580644 66.0025 0.742124 66.0025 0.937963C66.0025 1.07196 66.0381 1.19393 66.1093 1.30387C66.1805 1.41038 66.2874 1.53063 66.4298 1.66463L67.6609 2.84481C67.7808 2.6421 67.8595 2.40332 67.897 2.12845L68.1612 2.2676C68.1088 2.56651 68.0113 2.82591 67.8689 3.0458L68.4086 3.56632ZM66.5029 3.45809C66.9114 3.45809 67.2393 3.32925 67.4866 3.07157L66.2218 1.85531C65.9894 1.93433 65.817 2.05115 65.7046 2.20576C65.5922 2.35693 65.5359 2.52185 65.5359 2.70051C65.5359 2.93758 65.6221 3.12311 65.7945 3.2571C65.9707 3.3911 66.2068 3.45809 66.5029 3.45809Z" fill="white"/>
<path d="M77.2751 0.05669C77.811 0.05669 78.2533 0.231914 78.6018 0.582361C78.9541 0.929374 79.1302 1.35541 79.1302 1.86046C79.1302 2.36552 78.9541 2.79327 78.6018 3.14372C78.2533 3.49073 77.811 3.66424 77.2751 3.66424H75.7966V0.05669H77.2751ZM77.2751 3.40656C77.7323 3.40656 78.1071 3.25882 78.3994 2.96334C78.6917 2.66443 78.8379 2.29681 78.8379 1.86046C78.8379 1.42412 78.6917 1.05821 78.3994 0.762739C78.1071 0.463828 77.7323 0.314372 77.2751 0.314372H76.0945V3.40656H77.2751Z" fill="white"/>
<path d="M83.2709 3.40656H85.2385V3.66424H82.973V0.05669H85.2104V0.314372H83.2709V1.71616H85.0698V1.97385H83.2709V3.40656Z" fill="white"/>
<path d="M90.1136 3.66424L88.6464 0.05669H88.9724L90.271 3.30864L91.5752 0.05669H91.8957L90.4284 3.66424H90.1136Z" fill="white"/>
<path d="M95.8559 3.40656H97.8235V3.66424H95.558V0.05669H97.7954V0.314372H95.8559V1.71616H97.6549V1.97385H95.8559V3.40656Z" fill="white"/>
<path d="M101.945 3.40656H103.8V3.66424H101.647V0.05669H101.945V3.40656Z" fill="white"/>
<path d="M110.475 3.1798C110.082 3.54055 109.602 3.72093 109.036 3.72093C108.47 3.72093 107.991 3.54055 107.597 3.1798C107.204 2.81561 107.007 2.37583 107.007 1.86046C107.007 1.3451 107.204 0.907041 107.597 0.546286C107.991 0.182095 108.47 0 109.036 0C109.602 0 110.082 0.182095 110.475 0.546286C110.869 0.907041 111.066 1.3451 111.066 1.86046C111.066 2.37583 110.869 2.81561 110.475 3.1798ZM107.805 2.99427C108.142 3.30348 108.553 3.45809 109.036 3.45809C109.52 3.45809 109.928 3.30348 110.262 2.99427C110.599 2.68161 110.768 2.30368 110.768 1.86046C110.768 1.41725 110.599 1.04104 110.262 0.731817C109.928 0.419163 109.52 0.262836 109.036 0.262836C108.553 0.262836 108.142 0.419163 107.805 0.731817C107.472 1.04104 107.305 1.41725 107.305 1.86046C107.305 2.30368 107.472 2.68161 107.805 2.99427Z" fill="white"/>
<path d="M116.251 0.05669C116.603 0.05669 116.896 0.163199 117.128 0.376216C117.36 0.589233 117.477 0.855505 117.477 1.17503C117.477 1.49456 117.36 1.76083 117.128 1.97385C116.896 2.18343 116.603 2.28822 116.251 2.28822H115.211V3.66424H114.913V0.05669H116.251ZM116.251 2.03054C116.521 2.03054 116.742 1.94979 116.914 1.78831C117.091 1.62683 117.179 1.42241 117.179 1.17503C117.179 0.92422 117.091 0.718074 116.914 0.556593C116.742 0.395113 116.521 0.314372 116.251 0.314372H115.211V2.03054H116.251Z" fill="white"/>
<path d="M124.863 0.05669V3.66424H124.565V0.458674L123.109 2.67474H123.058L121.602 0.458674V3.66424H121.304V0.05669H121.675L123.081 2.1903L124.486 0.05669H124.863Z" fill="white"/>
<path d="M129.229 3.40656H131.197V3.66424H128.931V0.05669H131.168V0.314372H129.229V1.71616H131.028V1.97385H129.229V3.40656Z" fill="white"/>
<path d="M137.606 0.05669H137.904V3.66424H137.64L135.318 0.561747V3.66424H135.02V0.05669H135.279L137.606 3.15918V0.05669Z" fill="white"/>
<path d="M144.389 0.05669V0.314372H143.152V3.66424H142.849V0.314372H141.612V0.05669H144.389Z" fill="white"/>
<path d="M152.913 1.79347C153.115 1.86562 153.278 1.98072 153.402 2.13876C153.526 2.29681 153.588 2.47718 153.588 2.67989C153.588 2.95132 153.483 3.18323 153.273 3.37564C153.063 3.56804 152.81 3.66424 152.514 3.66424H150.816V0.0566901H152.385C152.669 0.0566901 152.913 0.149455 153.115 0.334986C153.318 0.520517 153.419 0.743843 153.419 1.00496C153.419 1.17675 153.372 1.33308 153.278 1.47394C153.189 1.61137 153.067 1.71788 152.913 1.79347ZM152.385 0.314373H151.114V1.69555H152.385C152.587 1.69555 152.759 1.62855 152.902 1.49456C153.048 1.35713 153.121 1.19393 153.121 1.00496C153.121 0.815993 153.048 0.654512 152.902 0.520517C152.759 0.383087 152.587 0.314373 152.385 0.314373ZM152.514 3.40656C152.728 3.40656 152.909 3.33613 153.059 3.19526C153.213 3.05096 153.29 2.87917 153.29 2.67989C153.29 2.48062 153.213 2.31055 153.059 2.16968C152.909 2.02538 152.728 1.95323 152.514 1.95323H151.114V3.40656H152.514Z" fill="white"/>
<path d="M160 0.0566901L158.567 2.17999V3.66424H158.269V2.17999L156.835 0.0566901H157.172L158.42 1.91716L159.663 0.0566901H160Z" fill="white"/>
</svg>
