<svg width="27" height="18" viewBox="0 0 27 18" fill="none" xmlns="http://www.w3.org/2000/svg">
<g clip-path="url(#clip0)">
<path d="M0 0V18H27V0H0Z" fill="#012169"/>
<path d="M0 0L27 18L0 0ZM27 0L0 18Z" fill="black"/>
<path d="M27 0L0 18M0 0L27 18L0 0Z" stroke="white" stroke-width="4.58036"/>
<path d="M0 0L27 18L0 0ZM27 0L0 18Z" fill="black"/>
<path d="M27 0L0 18M0 0L27 18L0 0Z" stroke="#C8102E" stroke-width="3.05357"/>
<path d="M13.5 0V18V0ZM0 9H27Z" fill="black"/>
<path d="M0 9H27M13.5 0V18V0Z" stroke="white" stroke-width="7.63393"/>
<path d="M13.5 0V18V0ZM0 9H27Z" fill="black"/>
<path d="M0 9H27M13.5 0V18V0Z" stroke="#C8102E" stroke-width="4.58036"/>
</g>
<defs>
<clipPath id="clip0">
<rect width="27" height="18" rx="3" fill="white"/>
</clipPath>
</defs>
</svg>
