<svg width="24" height="24" viewBox="0 0 24 24" fill="none" xmlns="http://www.w3.org/2000/svg">
<path d="M18.4998 7.00017C18.2031 7.00017 17.9131 6.9122 17.6665 6.74738C17.4198 6.58256 17.2275 6.34829 17.114 6.0742C17.0005 5.80011 16.9708 5.49851 17.0286 5.20754C17.0865 4.91657 17.2294 4.64929 17.4392 4.43951C17.6489 4.22974 17.9162 4.08687 18.2072 4.029C18.4982 3.97112 18.7998 4.00082 19.0738 4.11436C19.3479 4.22789 19.5822 4.42015 19.747 4.66682C19.9118 4.91349 19.9998 5.2035 19.9998 5.50017C20.0002 5.69728 19.9617 5.89252 19.8865 6.0747C19.8113 6.25688 19.7008 6.42241 19.5614 6.56178C19.4221 6.70115 19.2565 6.81163 19.0743 6.88686C18.8922 6.96209 18.6969 7.0006 18.4998 7.00017Z" fill="white"/>
<path fill-rule="evenodd" clip-rule="evenodd" d="M8.66658 7.01118C9.65327 6.35189 10.8133 6 12 6C13.5913 6 15.1174 6.63214 16.2426 7.75736C17.3679 8.88258 18 10.4087 18 12C18 13.1867 17.6481 14.3467 16.9888 15.3334C16.3295 16.3201 15.3925 17.0892 14.2961 17.5433C13.1997 17.9974 11.9933 18.1162 10.8295 17.8847C9.66557 17.6532 8.59647 17.0818 7.75736 16.2426C6.91824 15.4035 6.3468 14.3344 6.11529 13.1705C5.88378 12.0067 6.0026 10.8003 6.45672 9.7039C6.91085 8.60754 7.67988 7.67047 8.66658 7.01118ZM14.2224 8.67397C13.5646 8.23443 12.7912 7.99982 12 7.99982C10.9394 8.00096 9.92263 8.42277 9.1727 9.1727C8.42277 9.92263 8.00096 10.9394 7.99982 12C7.99982 12.7912 8.23443 13.5646 8.67397 14.2224C9.11352 14.8802 9.73826 15.3929 10.4692 15.6957C11.2001 15.9984 12.0044 16.0777 12.7804 15.9233C13.5564 15.769 14.2691 15.388 14.8286 14.8286C15.388 14.2691 15.769 13.5564 15.9233 12.7804C16.0777 12.0044 15.9984 11.2001 15.6957 10.4692C15.3929 9.73826 14.8802 9.11352 14.2224 8.67397Z" fill="white"/>
<path fill-rule="evenodd" clip-rule="evenodd" d="M16.9998 0H7.00018C3.15 0 0 3.15 0 7.00018V16.9998C0 20.85 3.15 24 7.00018 24H16.9998C20.85 24 24 20.85 24 16.9998V7.00018C24 3.15 20.85 0 16.9998 0ZM16.9998 1.99982C18.3248 2.00378 19.5943 2.53187 20.5312 3.46876C21.4681 4.40566 21.9962 5.67522 22.0002 7.00018V16.9998C21.9962 18.3248 21.4681 19.5943 20.5312 20.5312C19.5943 21.4681 18.3248 21.9962 16.9998 22.0002H7.00018C5.67522 21.9962 4.40566 21.4681 3.46876 20.5312C2.53187 19.5943 2.00378 18.3248 1.99982 16.9998V7.00018C2.00378 5.67522 2.53187 4.40566 3.46876 3.46876C4.40566 2.53187 5.67522 2.00378 7.00018 1.99982H16.9998Z" fill="white"/>
</svg>
