<svg width="262" height="109" viewBox="0 0 262 109" fill="none" xmlns="http://www.w3.org/2000/svg">
<path d="M57.6639 105V94.536H60.9599C61.5359 94.536 62.0693 94.5893 62.5599 94.696C63.0613 94.8027 63.4933 94.984 63.8559 95.24C64.2186 95.496 64.5013 95.832 64.7039 96.248C64.9066 96.6533 65.0079 97.16 65.0079 97.768C65.0079 98.344 64.9066 98.8453 64.7039 99.272C64.5013 99.6987 64.2186 100.056 63.8559 100.344C63.5039 100.621 63.0826 100.829 62.5919 100.968C62.1119 101.096 61.5893 101.16 61.0239 101.16H59.5199V105H57.6639ZM59.5199 99.672H60.8799C62.4159 99.672 63.1839 99.0373 63.1839 97.768C63.1839 97.1067 62.9813 96.6533 62.5759 96.408C62.1813 96.152 61.5946 96.024 60.8159 96.024H59.5199V99.672ZM69.6731 105.192C69.1824 105.192 68.7131 105.101 68.2651 104.92C67.8171 104.739 67.4171 104.472 67.0651 104.12C66.7237 103.768 66.4517 103.336 66.2491 102.824C66.0464 102.312 65.9451 101.731 65.9451 101.08C65.9451 100.429 66.0464 99.848 66.2491 99.336C66.4517 98.824 66.7237 98.392 67.0651 98.04C67.4171 97.688 67.8171 97.4213 68.2651 97.24C68.7131 97.048 69.1824 96.952 69.6731 96.952C70.1637 96.952 70.6331 97.048 71.0811 97.24C71.5397 97.4213 71.9397 97.688 72.2811 98.04C72.6224 98.392 72.8944 98.824 73.0971 99.336C73.3104 99.848 73.4171 100.429 73.4171 101.08C73.4171 101.731 73.3104 102.312 73.0971 102.824C72.8944 103.336 72.6224 103.768 72.2811 104.12C71.9397 104.472 71.5397 104.739 71.0811 104.92C70.6331 105.101 70.1637 105.192 69.6731 105.192ZM69.6731 103.688C70.2491 103.688 70.7024 103.453 71.0331 102.984C71.3637 102.504 71.5291 101.869 71.5291 101.08C71.5291 100.28 71.3637 99.6453 71.0331 99.176C70.7024 98.696 70.2491 98.456 69.6731 98.456C69.0971 98.456 68.6437 98.696 68.3131 99.176C67.9931 99.6453 67.8331 100.28 67.8331 101.08C67.8331 101.869 67.9931 102.504 68.3131 102.984C68.6437 103.453 69.0971 103.688 69.6731 103.688ZM69.6411 95.832L68.7291 94.92L71.0811 92.136L72.3611 93.352L69.6411 95.832ZM77.1423 105.192C76.481 105.192 76.017 104.995 75.7503 104.6C75.4836 104.205 75.3503 103.667 75.3503 102.984V100.152L74.5343 100.648L73.8943 99.496L75.3503 98.632V93.704H77.1903V97.704L78.0063 97.224L78.6623 98.376L77.1903 99.24V103.08C77.1903 103.304 77.233 103.464 77.3183 103.56C77.4036 103.645 77.4943 103.688 77.5903 103.688C77.633 103.688 77.6703 103.688 77.7023 103.688C77.745 103.688 77.8036 103.677 77.8783 103.656L78.1183 105.032C77.873 105.139 77.5476 105.192 77.1423 105.192ZM79.7696 108.104V97.144H81.2896L81.4176 97.976H81.4816C81.8122 97.6987 82.1802 97.4587 82.5856 97.256C82.9909 97.0533 83.4122 96.952 83.8496 96.952C84.3402 96.952 84.7722 97.048 85.1456 97.24C85.5296 97.4213 85.8549 97.688 86.1216 98.04C86.3882 98.392 86.5909 98.8133 86.7296 99.304C86.8682 99.7947 86.9376 100.344 86.9376 100.952C86.9376 101.624 86.8416 102.227 86.6496 102.76C86.4682 103.283 86.2229 103.725 85.9136 104.088C85.6042 104.44 85.2469 104.712 84.8416 104.904C84.4362 105.096 84.0149 105.192 83.5776 105.192C83.2362 105.192 82.8949 105.117 82.5536 104.968C82.2122 104.819 81.8816 104.605 81.5616 104.328L81.6096 105.64V108.104H79.7696ZM83.1936 103.672C83.7162 103.672 84.1536 103.448 84.5056 103C84.8576 102.541 85.0336 101.864 85.0336 100.968C85.0336 100.179 84.9002 99.5653 84.6336 99.128C84.3669 98.6907 83.9349 98.472 83.3376 98.472C82.7829 98.472 82.2069 98.7653 81.6096 99.352V103.016C81.8976 103.261 82.1749 103.432 82.4416 103.528C82.7082 103.624 82.9589 103.672 83.1936 103.672ZM88.8008 105V97.144H90.3208L90.4488 98.536H90.5128C90.7901 98.024 91.1261 97.6347 91.5208 97.368C91.9155 97.0907 92.3208 96.952 92.7368 96.952C93.1101 96.952 93.4088 97.0053 93.6328 97.112L93.3128 98.712C93.1741 98.6693 93.0461 98.6373 92.9288 98.616C92.8115 98.5947 92.6675 98.584 92.4968 98.584C92.1875 98.584 91.8621 98.7067 91.5208 98.952C91.1795 99.1867 90.8861 99.6027 90.6408 100.2V105H88.8008ZM97.8293 105.192C97.3386 105.192 96.8693 105.101 96.4213 104.92C95.9733 104.739 95.5733 104.472 95.2213 104.12C94.88 103.768 94.608 103.336 94.4053 102.824C94.2026 102.312 94.1013 101.731 94.1013 101.08C94.1013 100.429 94.2026 99.848 94.4053 99.336C94.608 98.824 94.88 98.392 95.2213 98.04C95.5733 97.688 95.9733 97.4213 96.4213 97.24C96.8693 97.048 97.3386 96.952 97.8293 96.952C98.32 96.952 98.7893 97.048 99.2373 97.24C99.696 97.4213 100.096 97.688 100.437 98.04C100.779 98.392 101.051 98.824 101.253 99.336C101.467 99.848 101.573 100.429 101.573 101.08C101.573 101.731 101.467 102.312 101.253 102.824C101.051 103.336 100.779 103.768 100.437 104.12C100.096 104.472 99.696 104.739 99.2373 104.92C98.7893 105.101 98.32 105.192 97.8293 105.192ZM97.8293 103.688C98.4053 103.688 98.8586 103.453 99.1893 102.984C99.52 102.504 99.6853 101.869 99.6853 101.08C99.6853 100.28 99.52 99.6453 99.1893 99.176C98.8586 98.696 98.4053 98.456 97.8293 98.456C97.2533 98.456 96.8 98.696 96.4693 99.176C96.1493 99.6453 95.9893 100.28 95.9893 101.08C95.9893 101.869 96.1493 102.504 96.4693 102.984C96.8 103.453 97.2533 103.688 97.8293 103.688ZM106.147 105.192C105.155 105.192 104.365 104.835 103.779 104.12C103.203 103.395 102.915 102.381 102.915 101.08C102.915 100.44 103.005 99.864 103.187 99.352C103.379 98.84 103.629 98.408 103.939 98.056C104.248 97.704 104.6 97.432 104.995 97.24C105.4 97.048 105.816 96.952 106.243 96.952C106.691 96.952 107.069 97.032 107.379 97.192C107.688 97.3413 107.997 97.5493 108.307 97.816L108.243 96.552V93.704H110.083V105H108.563L108.435 104.152H108.371C108.083 104.44 107.747 104.685 107.363 104.888C106.979 105.091 106.573 105.192 106.147 105.192ZM106.595 103.672C107.181 103.672 107.731 103.379 108.243 102.792V99.128C107.965 98.8827 107.693 98.712 107.427 98.616C107.171 98.52 106.909 98.472 106.643 98.472C106.131 98.472 105.699 98.696 105.347 99.144C104.995 99.592 104.819 100.232 104.819 101.064C104.819 101.917 104.968 102.568 105.267 103.016C105.576 103.453 106.019 103.672 106.595 103.672ZM114.762 105.192C113.919 105.192 113.306 104.925 112.922 104.392C112.538 103.848 112.346 103.075 112.346 102.072V97.144H114.186V101.832C114.186 102.483 114.282 102.941 114.474 103.208C114.666 103.475 114.975 103.608 115.402 103.608C115.743 103.608 116.042 103.523 116.298 103.352C116.564 103.181 116.847 102.904 117.146 102.52V97.144H118.986V105H117.482L117.338 103.848H117.29C116.948 104.253 116.575 104.579 116.17 104.824C115.775 105.069 115.306 105.192 114.762 105.192ZM121.316 105V93.704H123.124V100.76H123.172L126.084 97.144H128.1L125.412 100.344L128.372 105H126.372L124.356 101.592L123.124 103V105H121.316ZM131.991 105.192C131.532 105.192 131.143 105.123 130.823 104.984C130.513 104.845 130.257 104.653 130.055 104.408C129.863 104.152 129.719 103.853 129.623 103.512C129.537 103.16 129.495 102.771 129.495 102.344V98.6H128.375V97.224L129.591 97.144L129.815 95H131.351V97.144H133.351V98.6H131.351V102.344C131.351 103.261 131.719 103.72 132.455 103.72C132.593 103.72 132.732 103.704 132.871 103.672C133.02 103.64 133.153 103.597 133.271 103.544L133.591 104.904C133.377 104.979 133.132 105.043 132.855 105.096C132.588 105.16 132.3 105.192 131.991 105.192ZM135.532 108.232C135.319 108.232 135.132 108.216 134.972 108.184C134.812 108.163 134.657 108.125 134.508 108.072L134.844 106.632C134.919 106.653 135.004 106.675 135.1 106.696C135.207 106.728 135.308 106.744 135.404 106.744C135.82 106.744 136.151 106.616 136.396 106.36C136.652 106.115 136.844 105.795 136.972 105.4L137.116 104.904L134.028 97.144H135.9L137.26 101C137.377 101.341 137.489 101.704 137.596 102.088C137.713 102.461 137.831 102.835 137.948 103.208H138.012C138.108 102.845 138.204 102.477 138.3 102.104C138.407 101.72 138.508 101.352 138.604 101L139.788 97.144H141.564L138.716 105.352C138.556 105.8 138.38 106.2 138.188 106.552C137.996 106.904 137.772 107.203 137.516 107.448C137.271 107.704 136.983 107.896 136.652 108.024C136.332 108.163 135.959 108.232 135.532 108.232ZM146.129 105V97.144H147.649L147.777 98.216H147.841C148.172 97.864 148.529 97.5653 148.913 97.32C149.308 97.0747 149.75 96.952 150.241 96.952C150.817 96.952 151.276 97.0747 151.617 97.32C151.969 97.5653 152.236 97.912 152.417 98.36C152.79 97.9547 153.18 97.6187 153.585 97.352C153.99 97.0853 154.444 96.952 154.945 96.952C155.777 96.952 156.39 97.224 156.785 97.768C157.18 98.3013 157.377 99.0693 157.377 100.072V105H155.521V100.312C155.521 99.6613 155.42 99.2027 155.217 98.936C155.025 98.6693 154.726 98.536 154.321 98.536C153.83 98.536 153.281 98.8613 152.673 99.512V105H150.833V100.312C150.833 99.6613 150.732 99.2027 150.529 98.936C150.337 98.6693 150.033 98.536 149.617 98.536C149.126 98.536 148.577 98.8613 147.969 99.512V105H146.129ZM159.613 105V97.144H161.133L161.261 98.536H161.325C161.603 98.024 161.939 97.6347 162.333 97.368C162.728 97.0907 163.133 96.952 163.549 96.952C163.923 96.952 164.221 97.0053 164.445 97.112L164.125 98.712C163.987 98.6693 163.859 98.6373 163.741 98.616C163.624 98.5947 163.48 98.584 163.309 98.584C163 98.584 162.675 98.7067 162.333 98.952C161.992 99.1867 161.699 99.6027 161.453 100.2V105H159.613ZM168.642 105.192C168.151 105.192 167.682 105.101 167.234 104.92C166.786 104.739 166.386 104.472 166.034 104.12C165.692 103.768 165.42 103.336 165.218 102.824C165.015 102.312 164.914 101.731 164.914 101.08C164.914 100.429 165.015 99.848 165.218 99.336C165.42 98.824 165.692 98.392 166.034 98.04C166.386 97.688 166.786 97.4213 167.234 97.24C167.682 97.048 168.151 96.952 168.642 96.952C169.132 96.952 169.602 97.048 170.05 97.24C170.508 97.4213 170.908 97.688 171.25 98.04C171.591 98.392 171.863 98.824 172.066 99.336C172.279 99.848 172.386 100.429 172.386 101.08C172.386 101.731 172.279 102.312 172.066 102.824C171.863 103.336 171.591 103.768 171.25 104.12C170.908 104.472 170.508 104.739 170.05 104.92C169.602 105.101 169.132 105.192 168.642 105.192ZM168.642 103.688C169.218 103.688 169.671 103.453 170.002 102.984C170.332 102.504 170.498 101.869 170.498 101.08C170.498 100.28 170.332 99.6453 170.002 99.176C169.671 98.696 169.218 98.456 168.642 98.456C168.066 98.456 167.612 98.696 167.282 99.176C166.962 99.6453 166.802 100.28 166.802 101.08C166.802 101.869 166.962 102.504 167.282 102.984C167.612 103.453 168.066 103.688 168.642 103.688ZM173.427 105V104.008L177.139 98.6H173.843V97.144H179.443V98.12L175.747 103.528H179.571V105H173.427ZM176.675 95.768C176.355 95.768 176.093 95.672 175.891 95.48C175.688 95.2773 175.587 95.0213 175.587 94.712C175.587 94.4027 175.688 94.152 175.891 93.96C176.093 93.768 176.355 93.672 176.675 93.672C176.995 93.672 177.256 93.768 177.459 93.96C177.661 94.152 177.763 94.4027 177.763 94.712C177.763 95.0213 177.661 95.2773 177.459 95.48C177.256 95.672 176.995 95.768 176.675 95.768ZM184.204 105.192C183.714 105.192 183.244 105.101 182.796 104.92C182.348 104.739 181.948 104.472 181.596 104.12C181.255 103.768 180.983 103.336 180.78 102.824C180.578 102.312 180.476 101.731 180.476 101.08C180.476 100.429 180.578 99.848 180.78 99.336C180.983 98.824 181.255 98.392 181.596 98.04C181.948 97.688 182.348 97.4213 182.796 97.24C183.244 97.048 183.714 96.952 184.204 96.952C184.695 96.952 185.164 97.048 185.612 97.24C186.071 97.4213 186.471 97.688 186.812 98.04C187.154 98.392 187.426 98.824 187.628 99.336C187.842 99.848 187.948 100.429 187.948 101.08C187.948 101.731 187.842 102.312 187.628 102.824C187.426 103.336 187.154 103.768 186.812 104.12C186.471 104.472 186.071 104.739 185.612 104.92C185.164 105.101 184.695 105.192 184.204 105.192ZM184.204 103.688C184.78 103.688 185.234 103.453 185.564 102.984C185.895 102.504 186.06 101.869 186.06 101.08C186.06 100.28 185.895 99.6453 185.564 99.176C185.234 98.696 184.78 98.456 184.204 98.456C183.628 98.456 183.175 98.696 182.844 99.176C182.524 99.6453 182.364 100.28 182.364 101.08C182.364 101.869 182.524 102.504 182.844 102.984C183.175 103.453 183.628 103.688 184.204 103.688ZM189.77 105V97.144H191.29L191.418 98.2H191.482C191.834 97.8587 192.212 97.5653 192.618 97.32C193.034 97.0747 193.514 96.952 194.058 96.952C194.9 96.952 195.514 97.224 195.898 97.768C196.282 98.3013 196.474 99.0693 196.474 100.072V105H194.634V100.312C194.634 99.6613 194.538 99.2027 194.346 98.936C194.154 98.6693 193.839 98.536 193.402 98.536C193.06 98.536 192.756 98.6213 192.49 98.792C192.234 98.952 191.94 99.192 191.61 99.512V105H189.77ZM202.083 105.192C201.539 105.192 201.032 105.101 200.563 104.92C200.093 104.728 199.683 104.456 199.331 104.104C198.979 103.752 198.701 103.325 198.499 102.824C198.307 102.312 198.211 101.731 198.211 101.08C198.211 100.44 198.312 99.864 198.515 99.352C198.717 98.84 198.984 98.408 199.315 98.056C199.656 97.704 200.045 97.432 200.483 97.24C200.92 97.048 201.368 96.952 201.827 96.952C202.36 96.952 202.829 97.0427 203.235 97.224C203.64 97.4053 203.976 97.6613 204.243 97.992C204.52 98.3227 204.728 98.7173 204.867 99.176C205.005 99.6347 205.075 100.136 205.075 100.68C205.075 100.861 205.064 101.032 205.043 101.192C205.032 101.352 205.016 101.48 204.995 101.576H200.003C200.088 102.28 200.333 102.824 200.739 103.208C201.155 103.581 201.683 103.768 202.323 103.768C202.664 103.768 202.979 103.72 203.267 103.624C203.565 103.517 203.859 103.373 204.147 103.192L204.771 104.344C204.397 104.589 203.981 104.792 203.523 104.952C203.064 105.112 202.584 105.192 202.083 105.192ZM199.987 100.328H203.475C203.475 99.72 203.341 99.2453 203.075 98.904C202.819 98.552 202.419 98.376 201.875 98.376C201.405 98.376 200.995 98.5413 200.643 98.872C200.291 99.2027 200.072 99.688 199.987 100.328Z" fill="#AE887B"/>
<path fill-rule="evenodd" clip-rule="evenodd" d="M259.102 62.4592C259.901 61.0296 260.328 60.3526 261.45 60.4218C262.276 60.4728 262.212 60.6759 260.98 64.5878L260.979 64.5905C260.539 65.987 259.95 67.8558 259.2 70.3584C256.346 79.8764 251.331 82.3869 249.361 82.3869C247.39 82.3869 246.328 81.6799 243.71 74.6522C241.291 68.1592 243.272 51.9871 243.638 49.0058L243.638 49.0053C243.653 48.8831 243.665 48.7831 243.674 48.7068C243.68 48.6598 243.684 48.6218 243.687 48.5932C243.689 48.5752 243.691 48.5609 243.692 48.5504C243.755 47.8428 241.967 46.6065 235.949 59.0705C230.135 71.1108 227.254 73.2662 226.553 73.7904C226.529 73.8089 226.507 73.8253 226.487 73.8401C226.47 73.8532 226.451 73.8678 226.431 73.8838C225.77 74.3981 223.351 76.2805 220.481 71.2112C219.03 68.6483 218.407 62.8418 218.149 57.5883C217.092 63.2863 213.859 73.5445 207.089 73.5445C200.362 73.5445 197.194 65.4996 196.011 58.9769C194.923 61.2427 190.155 70.8173 185.936 73.6075C179.304 77.9944 175.252 71.5403 175.032 61.9089C173.332 65.5656 168.511 75.2666 164.114 77.7875C158.663 80.9122 153.473 77.3381 154.751 64.7096C155.404 58.2477 157.441 52.2304 158.952 47.7649C160.395 43.5034 161.359 40.6552 160.186 40.1825C158.211 39.3863 151.869 44.5121 148.389 52.233C148.325 52.8539 148.241 53.4668 148.133 54.0646C147.171 59.3756 147.281 61.4988 147.347 62.7752C147.407 63.9513 147.431 64.4084 146.545 65.978C145.706 67.4643 141.421 69.4246 139.213 67.9139C136.507 66.0637 137.397 60.327 138.131 55.5958L138.193 55.1976C138.472 53.3951 138.854 51.3496 139.23 49.3339C140.238 43.929 141.207 38.738 140.043 39.0203C138.571 39.3774 132.071 51.6799 129.836 59.9842C129.835 59.9916 129.834 59.9984 129.833 60.0058C129.477 62.0458 129.489 63.8352 129.499 65.3256C129.515 67.73 129.526 69.356 127.979 70.0002C126.705 70.531 125.943 71.2454 125.339 71.8113C124.396 72.6945 123.84 73.2157 122.326 72.1121C120.68 70.9124 120.261 64.7692 120.088 57.9299C120.032 55.7115 120.002 53.8723 119.984 52.3031C119.532 54.4311 118.869 57.2887 117.978 60.5001C117.893 60.8074 117.806 61.1237 117.717 61.4469L117.716 61.4482C116.537 65.7324 115.022 71.2381 112.947 73.1482C102.782 82.5059 99.6182 58.8196 101.896 31.8279C101.896 31.8279 103.853 8.96768 104.013 5.9521C104.035 5.5229 104.041 5.08041 104.047 4.63958V4.63884C104.081 1.98253 104.114 -0.612926 107.857 0.128441C110.892 0.729822 116.427 2.5998 115.643 11.6521C115.449 13.8868 114.754 17.2612 113.89 21.448C111.594 32.5876 108.112 49.4784 109.745 65.9555C110.468 73.2422 113.074 70.7882 115.895 59.8441C117.539 53.4636 118.948 47.8825 119.838 44.3342C119.76 43.1101 119.625 41.9628 119.382 40.5636C119.051 38.6569 118.654 37.2672 118.366 36.2624C117.959 34.84 117.773 34.1885 118.308 33.9326C118.308 33.9326 122.852 32.7651 126.587 36.976C129.142 39.8569 130.056 42.8685 130.312 45.7681C133.719 40.1603 138.016 34.3592 141.098 34.6078C145.328 34.9489 147.864 40.585 148.422 46.7588C151.778 41.7813 157.218 36.0004 163.773 37.4593C172.72 39.4506 168.714 49.4448 165.935 56.378C165.267 58.0446 164.67 59.5343 164.341 60.6935L164.275 60.9254C162.585 66.873 160.442 74.4157 162.493 74.2498C164.571 74.0817 167.95 69.7223 170.832 64.7897C172.58 61.7976 174.22 58.8136 175.241 56.9271C175.338 55.9802 175.467 55.0182 175.631 54.0457C175.631 54.0457 178.43 42.2874 178.59 40.7795C178.61 40.5874 178.622 40.3903 178.634 40.1928C178.718 38.84 178.803 37.4692 181.497 37.5669C184.584 37.6789 188.659 40.9626 188.378 45.0657C188.26 46.8001 187.277 50.7176 186.219 54.9386C184.773 60.7033 183.185 67.0342 183.462 69.1433C183.889 72.398 185.149 70.9029 185.713 70.2347C185.782 70.1528 185.84 70.0834 185.886 70.0366C186.3 69.6081 187.938 67.8046 190.759 62.3322C192.978 58.0274 194.768 54.4484 195.431 53.1164C195.432 52.901 195.435 52.6945 195.443 52.5047C195.656 47.2098 197.838 41.4383 202.779 40.1748C205.992 39.3532 213.54 40.0913 211.411 50.5456C210.494 55.046 207.186 59.7166 205.76 61.6493C207.336 67.9192 209.335 69.0489 209.74 68.9396C210.208 68.8132 211.845 68.3403 214.236 62.938C214.967 61.2863 215.591 59.8137 216.122 58.5604C216.979 56.5347 217.595 55.0819 218.029 54.3718C217.926 50.3535 218.005 47.2649 218.005 47.2649C218.005 47.2649 218.543 41.5971 217.755 39.5072C216.966 37.4174 219.821 37.2552 221.684 37.6014C223.547 37.9476 228.71 40.5911 229.202 49.6725C229.537 55.8584 228.401 61.6406 227.778 64.816C227.486 66.3023 227.306 67.2174 227.442 67.3356C227.53 67.4121 228.027 66.3604 228.841 64.643C231.967 58.0402 239.753 41.5971 246.807 41.5971C255.696 41.5971 253.886 55.3111 252.778 62.1619C252.561 63.501 252.309 64.9086 252.058 66.3067L252.058 66.3085L252.057 66.3122C251.026 72.0649 250.024 77.6558 251.651 77.6558C253.151 77.6558 256.088 70.0761 257.83 65.5811L257.83 65.5807L257.831 65.5784C258.436 64.0168 258.897 62.8279 259.102 62.4592ZM208.231 44.1169C206.483 46.8695 203.971 52.1106 205.06 58.3292C205.065 58.3586 205.07 58.387 205.076 58.4154C205.08 58.4401 205.085 58.4648 205.089 58.4902C206.17 56.523 209.156 50.782 209.069 47.5275C209.017 45.5875 208.622 44.6115 208.231 44.1169Z" fill="#28387B"/>
<path d="M63.9052 31.8516C63.3361 32.3397 62.9151 32.7008 62.0751 31.3638C62.0751 31.3638 61.3346 29.5545 61.2409 28.0775C61.2354 27.9916 61.2284 27.8885 61.2204 27.7701C61.0907 25.8532 60.6914 19.9545 62.1727 18.9872C63.7454 17.9602 67.9092 19.2054 71.0424 22.7738C74.1756 26.3421 74.8453 28.9638 71.3662 30.6938C69.6262 31.559 68.0239 31.3845 66.7365 31.2443C66.0928 31.1742 65.5278 31.1126 65.0637 31.1939C64.5715 31.28 64.2162 31.5848 63.9052 31.8516Z" fill="#28387B"/>
<path d="M182.459 31.8516C181.89 32.3397 181.469 32.7008 180.629 31.3638C180.629 31.3638 179.888 29.5545 179.795 28.0775C179.792 28.0404 179.79 28 179.787 27.9565L179.774 27.7707C179.645 25.8544 179.245 19.9546 180.727 18.9872C182.299 17.9602 186.463 19.2054 189.596 22.7738C192.729 26.3421 193.399 28.9638 189.92 30.6938C188.18 31.559 186.578 31.3845 185.29 31.2443C184.647 31.1742 184.082 31.1126 183.618 31.1939C183.125 31.28 182.77 31.5848 182.459 31.8516Z" fill="#28387B"/>
<path d="M238.386 36.036C238.386 36.036 239.826 37.0962 241.682 36.2549C243.538 35.4136 248.354 29.9231 249.106 27.1423C249.857 24.3614 247.514 22.765 245.156 21.764C242.216 20.5161 237.603 31.4347 237.299 33.0448C237.087 34.1632 237.658 35.5686 238.386 36.036Z" fill="#28387B"/>
<path fill-rule="evenodd" clip-rule="evenodd" d="M99.2266 55.3062C98.8088 55.4164 98.3728 56.4463 97.3468 58.87C96.8937 59.9404 96.3254 61.2828 95.5928 62.9379C93.2014 68.3403 91.5642 68.8131 91.0963 68.9395C90.6914 69.0489 88.693 67.9191 87.1162 61.6492C88.5431 59.7165 91.851 55.0459 92.7675 50.5455C94.8966 40.0912 87.3481 39.3531 84.1351 40.1748C79.1946 41.4382 77.0123 47.2097 76.7993 52.5046C76.7905 52.723 76.7881 52.965 76.7886 53.217C76.0889 54.6215 74.3322 58.1306 72.1663 62.3321C69.3452 67.8046 67.7078 69.608 67.293 70.0365C67.2478 70.0832 67.1893 70.1526 67.1204 70.2344C66.557 70.9025 65.2962 72.3979 64.8694 69.1433C64.5929 67.0341 66.1806 60.7031 67.6263 54.9383C68.6848 50.7174 69.6672 46.8 69.7859 45.0656C70.0669 40.9625 65.9919 37.6788 62.9048 37.5668C60.2109 37.4692 60.1259 38.8399 60.042 40.1927C60.0298 40.3902 60.0175 40.5873 59.9972 40.7794C59.8377 42.2873 57.0389 54.0456 57.0389 54.0456C54.761 67.5423 59.0192 79.1133 67.3438 73.6074C71.5167 70.8474 76.2279 61.4484 77.3817 59.0527C78.5752 65.5618 81.7443 73.5444 88.4457 73.5444C94.4458 73.5444 96.4556 66.9053 98.2421 61.0042C98.7659 59.2739 99.2705 57.6071 99.8508 56.1896C100.199 55.3388 99.3323 55.2784 99.2266 55.3062ZM86.4165 58.3291C85.3273 52.1105 87.8393 46.8694 89.5881 44.1168C89.9785 44.6114 90.3735 45.5874 90.4255 47.5274C90.5127 50.7819 87.527 56.5229 86.446 58.4901C86.4436 58.4766 86.4412 58.4634 86.4388 58.4502C86.4367 58.4391 86.4346 58.4279 86.4326 58.4168C86.4272 58.3879 86.4218 58.3591 86.4165 58.3291Z" fill="#28387B"/>
<path fill-rule="evenodd" clip-rule="evenodd" d="M19.1655 53.0106C21.2354 42.5348 26.2483 28.3322 38.2519 27.4848C58.8619 26.0299 55.5427 72.4144 34.1116 78.6307C25.9042 81.0114 28.003 72.4977 28.4697 70.8772C30.0969 64.5927 36.9027 58.8533 39.261 57.0194C39.4153 53.8111 39.3988 50.0544 39.1518 45.6476C38.2383 29.35 33.1209 27.347 28.4426 43.8209C25.4381 54.4007 22.5838 75.2336 21.379 84.6911L21.3792 84.698C21.6012 92.1796 21.8151 99.3872 21.5766 100.609C21.5211 100.893 21.4853 101.134 21.454 101.345C21.3071 102.334 21.2579 102.665 19.7399 103.707C18.6859 104.43 18.1963 105.254 17.769 105.973C17.4497 106.51 17.1652 106.989 16.706 107.323C15.5878 108.137 11.4791 109.653 9.3166 98.437C7.15411 87.2211 4.02678 67.5569 2.86133 56.2861C2.30651 50.9203 1.97963 46.3263 1.72911 42.8053C1.4534 38.9305 1.27017 36.3552 0.977365 35.4814C0.830287 35.0425 0.665949 34.6585 0.514622 34.305C0.0908992 33.3151 -0.230816 32.5636 0.213992 31.5102C0.213992 31.5102 1.53779 29.0988 6.48714 29.7882C11.4365 30.4776 15.0118 33.947 17.2161 42.2595C17.9494 45.0246 18.606 48.8267 19.1655 53.0106ZM38.9274 61.259C35.9294 62.9979 33.0394 65.5249 30.6952 71.0509C28.2467 76.8223 32.3635 75.3101 32.3635 75.3101L33.0384 75.0117C35.146 73.8269 37.881 70.511 38.9274 61.259Z" fill="#28387B"/>
</svg>
