<svg width="56" height="56" viewBox="0 0 56 56" fill="none" xmlns="http://www.w3.org/2000/svg">
<path d="M34.1762 12.3591C29.1969 12.7152 27.1175 18.6821 26.2589 23.0833C26.0268 21.3255 25.7544 19.7281 25.4503 18.5664C24.5358 15.0741 23.0528 13.6165 20.9997 13.3269C18.9466 13.0372 18.3975 14.0503 18.3975 14.0503C18.1471 14.6509 18.4823 15.018 18.7141 15.7187C18.946 16.4195 19.0122 19.7242 19.4957 24.4594C19.9791 29.1946 21.2764 37.4561 22.1734 42.1683C23.0704 46.8804 24.7748 46.2433 25.2386 45.9015C25.684 45.5733 25.7331 44.9135 26.4972 44.3823C27.2612 43.8511 27.1282 43.7597 27.259 43.0809C27.358 42.5673 27.2692 39.5374 27.1771 36.3932C27.6769 32.4198 28.8608 23.6673 30.1071 19.2224C32.0478 12.3012 34.1706 13.1428 34.5495 19.9899C34.652 21.8413 34.6588 23.4196 34.5948 24.7675C33.6165 25.538 30.7934 27.9493 30.1184 30.5896C29.9248 31.2704 29.0542 34.8472 32.4587 33.8471C41.3487 31.2354 42.7255 11.7479 34.1762 12.3591ZM31.0416 30.6625C32.014 28.3409 33.2128 27.2792 34.4564 26.5487C34.0224 30.4357 32.8878 31.8288 32.0136 32.3266L31.7336 32.452C31.7336 32.452 30.0259 33.0873 31.0416 30.6625Z" fill="white"/>
<path d="M54.2844 28.9698C54.572 28.272 56.0172 25.9157 55.9998 23.5867C55.9825 21.2576 52.3134 20.878 51.1275 19.1474C50.5314 18.2775 51.4286 17.1049 50.966 14.4769C50.5033 11.8489 49.083 10.5953 47.2403 9.92471C45.3976 9.25411 45.0456 8.43544 44.7116 7.35037C44.0075 5.06255 42.7726 3.60618 39.9878 3.18346C38.4179 2.94515 37.3307 3.29094 35.5999 3.20483C33.8691 3.11872 32.4524 -0.003845 28.7105 3.55456e-06C27.3075 0.00144804 25.4726 1.87407 24.2452 2.2363C23.0179 2.5985 20.3583 1.55645 19.4345 1.72562C18.5107 1.89479 17.4571 2.30277 16.0785 4.31372C14.6998 6.32466 13.515 6.9018 13.515 6.9018C11.5894 7.87283 11.7008 7.56336 8.591 8.98874C5.53131 10.3911 6.71622 12.8343 5.80098 14.4208C4.88573 16.0072 2.64384 17.7201 1.59158 19.8035C0.735613 21.4982 2.33566 23.7713 2.25396 26.1379C2.17225 28.5045 -0.156274 29.4608 0.00832984 32.5498C0.172934 35.6387 2.58036 36.0741 3.35023 37.4901C4.12006 38.9061 3.62977 42.9776 4.76281 44.7807C5.89583 46.5839 9.206 46.3568 10.6946 46.9995C12.1832 47.6421 11.5105 48.7202 13.3752 50.996C15.2398 53.2718 18.8151 52.5347 20.0922 52.7433C21.3693 52.9518 21.4489 53.3847 23.6109 54.8825C25.7728 56.3802 27.546 56.1788 28.4881 55.406C30.9039 53.4245 33.0026 53.36 33.5715 53.4656C35.1191 53.7528 36.1641 54.9137 38.1114 54.3287C39.1866 54.0057 40.1116 52.9079 40.6485 51.2779C41.1854 49.6479 41.7783 49.0311 43.5029 48.4386C45.2274 47.8461 49.1653 47.2068 50.2647 46.4535C51.3641 45.7003 51.6962 44.2837 51.8642 42.9472C52.0323 41.6107 52.0465 39.6056 52.5422 38.589C53.2014 37.2372 54.973 36.9294 55.5645 34.652C55.9793 33.055 54.8119 31.4099 54.4945 30.892C54.1772 30.3742 53.9967 29.6677 54.2844 28.9698ZM52.7231 34.0113C52.5655 35.1463 51.763 35.3796 51.3618 35.7061C50.9605 36.0326 49.7954 37.0558 49.4019 38.1006C48.5994 40.2307 49.4327 42.9206 49.0006 43.5736C48.5685 44.2267 44.9728 44.8642 43.7228 45.3306C42.4728 45.7971 41.4543 46.4656 40.7135 47.4297C39.9728 48.3937 39.3555 50.1351 39.0777 50.586C38.7999 51.0369 38.5839 51.2701 37.5808 51.3012C36.5777 51.3323 34.9508 50.5654 33.1517 50.9125C30.2504 51.4722 28.9448 53.4935 27.6763 53.4624C26.4078 53.4314 25.1578 52.3119 24.3707 51.8299C23.5837 51.3479 22.1948 50.6326 20.5435 50.5393C18.8923 50.446 17.0404 50.8348 16.2071 50.2284C15.3737 49.622 14.8027 46.9192 13.0434 45.6662C11.2842 44.4132 9.43231 44.662 8.55266 44.0867C7.67302 43.5114 7.24093 42.4075 6.87055 39.7642C6.50018 37.121 5.57424 35.8305 4.52484 35.1463C3.47544 34.4622 2.46264 34.0269 2.62955 32.9385C2.79642 31.8501 4.15447 30.6218 4.52484 28.2117C4.89522 25.8017 3.86124 23.174 3.70692 22.6609C3.55262 22.1478 3.39828 21.1994 4.77175 20.2354C6.14523 19.2714 7.73474 17.5921 8.136 16.115C8.53723 14.6379 8.136 12.5544 9.03105 11.5593C9.92612 10.5642 11.0364 10.7256 12.1638 10.3932C14.6947 9.64685 16.0836 8.52736 17.1947 6.98807C18.3059 5.44875 19.0775 5.07559 19.7719 5.06004C20.4664 5.0445 21.9479 5.85301 23.1979 5.80637C24.4479 5.75973 27.3183 3.52075 27.8276 3.24087C28.3368 2.96101 28.7844 2.68112 29.3554 2.8988C29.9263 3.11649 31.2998 4.73352 33.3369 5.38657C35.3739 6.03959 37.5345 5.18444 38.7691 5.54206C40.0036 5.89967 40.8524 6.49051 41.4851 8.13865C42.1178 9.78679 42.1024 10.2377 43.2598 11.1395C44.4173 12.0413 46.3 12.1501 46.9636 12.912C47.6272 13.6739 48.3679 14.6379 48.4142 16.9702C48.4605 19.3024 49.0624 20.0021 49.5562 20.8729C50.05 21.7436 51.9557 22.8025 52.0717 23.345C52.2877 24.3557 51.6704 25.2575 51.2846 26.4392C50.8988 27.6209 50.6673 28.6782 50.976 29.751C51.2846 30.8239 52.8807 32.8763 52.7231 34.0113Z" fill="white"/>
</svg>
