<svg width="32" height="16" viewBox="0 0 32 16" fill="none" xmlns="http://www.w3.org/2000/svg">
<rect width="32" height="16" rx="8" fill="#658FF7"/>
<path d="M11.0914 12V9.7472H7.4178V9.056L10.9122 3.8336H12.0898V8.9024H13.2034V9.7472H12.0898V12H11.0914ZM8.5314 8.9024H11.0914V6.5344C11.0914 6.31253 11.0957 6.05227 11.1042 5.7536C11.1213 5.4464 11.1383 5.18187 11.1554 4.96H11.1042C11.0018 5.15627 10.8951 5.34827 10.7842 5.536C10.6733 5.72373 10.5581 5.91573 10.4386 6.112L8.5314 8.9024Z" fill="white"/>
<path d="M20.0002 3.2002L21.0779 6.51691H24.5653L21.7439 8.56676L22.8216 11.8835L20.0002 9.83363L17.1788 11.8835L18.2565 8.56676L15.4351 6.51691H18.9225L20.0002 3.2002Z" fill="white"/>
</svg>
